<svg xmlns="http://www.w3.org/2000/svg" width="1680" height="700" viewBox="0 0 1680 700">
<rect width="100%" height="100%" fill="#ffffff"/>
<text x="24" y="34" font-family="Arial, sans-serif" font-size="20" font-weight="700" fill="#111827">Operator category mix on matched batches</text>
<text x="24" y="56" font-family="Arial, sans-serif" font-size="12" fill="#4b5563">Paired stacked bars compare with CF and without CF at the same batch size</text>
<line x1="82" y1="588.0" x2="1320" y2="588.0" stroke="#e5e7eb"/>
<text x="72" y="592.0" text-anchor="end" font-family="Arial, sans-serif" font-size="11" fill="#6b7280">0</text>
<line x1="82" y1="486.8" x2="1320" y2="486.8" stroke="#e5e7eb"/>
<text x="72" y="490.8" text-anchor="end" font-family="Arial, sans-serif" font-size="11" fill="#6b7280">1k</text>
<line x1="82" y1="385.6" x2="1320" y2="385.6" stroke="#e5e7eb"/>
<text x="72" y="389.6" text-anchor="end" font-family="Arial, sans-serif" font-size="11" fill="#6b7280">2k</text>
<line x1="82" y1="284.4" x2="1320" y2="284.4" stroke="#e5e7eb"/>
<text x="72" y="288.4" text-anchor="end" font-family="Arial, sans-serif" font-size="11" fill="#6b7280">3k</text>
<line x1="82" y1="183.2" x2="1320" y2="183.2" stroke="#e5e7eb"/>
<text x="72" y="187.2" text-anchor="end" font-family="Arial, sans-serif" font-size="11" fill="#6b7280">4k</text>
<line x1="82" y1="82.0" x2="1320" y2="82.0" stroke="#e5e7eb"/>
<text x="72" y="86.0" text-anchor="end" font-family="Arial, sans-serif" font-size="11" fill="#6b7280">5k</text>
<line x1="82" y1="82" x2="82" y2="588" stroke="#9ca3af"/>
<line x1="82" y1="588" x2="1320" y2="588" stroke="#9ca3af"/>
<line x1="82.0" y1="588" x2="82.0" y2="593" stroke="#9ca3af"/>
<text x="82.0" y="610" text-anchor="middle" font-family="Arial, sans-serif" font-size="11" fill="#374151">2</text>
<line x1="194.5" y1="588" x2="194.5" y2="593" stroke="#9ca3af"/>
<text x="194.5" y="610" text-anchor="middle" font-family="Arial, sans-serif" font-size="11" fill="#374151">3</text>
<line x1="307.1" y1="588" x2="307.1" y2="593" stroke="#9ca3af"/>
<text x="307.1" y="610" text-anchor="middle" font-family="Arial, sans-serif" font-size="11" fill="#374151">29</text>
<line x1="419.6" y1="588" x2="419.6" y2="593" stroke="#9ca3af"/>
<text x="419.6" y="610" text-anchor="middle" font-family="Arial, sans-serif" font-size="11" fill="#374151">51</text>
<line x1="532.2" y1="588" x2="532.2" y2="593" stroke="#9ca3af"/>
<text x="532.2" y="610" text-anchor="middle" font-family="Arial, sans-serif" font-size="11" fill="#374151">81</text>
<line x1="644.7" y1="588" x2="644.7" y2="593" stroke="#9ca3af"/>
<text x="644.7" y="610" text-anchor="middle" font-family="Arial, sans-serif" font-size="11" fill="#374151">88</text>
<line x1="757.3" y1="588" x2="757.3" y2="593" stroke="#9ca3af"/>
<text x="757.3" y="610" text-anchor="middle" font-family="Arial, sans-serif" font-size="11" fill="#374151">90</text>
<line x1="869.8" y1="588" x2="869.8" y2="593" stroke="#9ca3af"/>
<text x="869.8" y="610" text-anchor="middle" font-family="Arial, sans-serif" font-size="11" fill="#374151">91</text>
<line x1="982.4" y1="588" x2="982.4" y2="593" stroke="#9ca3af"/>
<text x="982.4" y="610" text-anchor="middle" font-family="Arial, sans-serif" font-size="11" fill="#374151">96</text>
<line x1="1094.9" y1="588" x2="1094.9" y2="593" stroke="#9ca3af"/>
<text x="1094.9" y="610" text-anchor="middle" font-family="Arial, sans-serif" font-size="11" fill="#374151">97</text>
<line x1="1207.5" y1="588" x2="1207.5" y2="593" stroke="#9ca3af"/>
<text x="1207.5" y="610" text-anchor="middle" font-family="Arial, sans-serif" font-size="11" fill="#374151">99</text>
<line x1="1320.0" y1="588" x2="1320.0" y2="593" stroke="#9ca3af"/>
<text x="1320.0" y="610" text-anchor="middle" font-family="Arial, sans-serif" font-size="11" fill="#374151">176</text>
<text x="701.0" y="686" text-anchor="middle" font-family="Arial, sans-serif" font-size="12" fill="#374151">batch size</text>
<text x="18" y="335.0" transform="rotate(-90 18 335.0)" text-anchor="middle" font-family="Arial, sans-serif" font-size="12" fill="#374151">median op time (us)</text>
<rect x="35.7" y="570.7" width="35.1" height="17.3" fill="#2563eb" opacity="0.9"/>
<rect x="35.7" y="569.1" width="35.1" height="1.6" fill="#16a34a" opacity="0.9"/>
<rect x="35.7" y="568.9" width="35.1" height="1.0" fill="#9333ea" opacity="0.9"/>
<rect x="35.7" y="568.9" width="35.1" height="1.0" fill="#dc2626" opacity="0.9"/>
<text x="53.2" y="631" text-anchor="middle" font-family="Arial, sans-serif" font-size="10" fill="#6b7280">w_const</text>
<rect x="93.2" y="567.4" width="35.1" height="20.6" fill="#2563eb" opacity="0.9"/>
<rect x="93.2" y="565.8" width="35.1" height="1.6" fill="#16a34a" opacity="0.9"/>
<rect x="93.2" y="565.7" width="35.1" height="1.0" fill="#9333ea" opacity="0.9"/>
<rect x="93.2" y="565.7" width="35.1" height="1.0" fill="#dc2626" opacity="0.9"/>
<text x="110.8" y="631" text-anchor="middle" font-family="Arial, sans-serif" font-size="10" fill="#6b7280">wo_const</text>
<rect x="148.2" y="562.4" width="35.1" height="25.6" fill="#2563eb" opacity="0.9"/>
<rect x="148.2" y="560.5" width="35.1" height="1.9" fill="#16a34a" opacity="0.9"/>
<rect x="148.2" y="560.3" width="35.1" height="1.0" fill="#9333ea" opacity="0.9"/>
<rect x="148.2" y="560.2" width="35.1" height="1.0" fill="#dc2626" opacity="0.9"/>
<text x="165.8" y="631" text-anchor="middle" font-family="Arial, sans-serif" font-size="10" fill="#6b7280">w_const</text>
<rect x="205.8" y="562.3" width="35.1" height="25.7" fill="#2563eb" opacity="0.9"/>
<rect x="205.8" y="560.1" width="35.1" height="2.2" fill="#16a34a" opacity="0.9"/>
<rect x="205.8" y="559.9" width="35.1" height="1.0" fill="#9333ea" opacity="0.9"/>
<rect x="205.8" y="559.9" width="35.1" height="1.0" fill="#dc2626" opacity="0.9"/>
<text x="223.3" y="631" text-anchor="middle" font-family="Arial, sans-serif" font-size="10" fill="#6b7280">wo_const</text>
<rect x="260.8" y="527.8" width="35.1" height="60.2" fill="#2563eb" opacity="0.9"/>
<rect x="260.8" y="521.0" width="35.1" height="6.8" fill="#16a34a" opacity="0.9"/>
<rect x="260.8" y="520.7" width="35.1" height="1.0" fill="#9333ea" opacity="0.9"/>
<rect x="260.8" y="520.7" width="35.1" height="1.0" fill="#dc2626" opacity="0.9"/>
<text x="278.3" y="631" text-anchor="middle" font-family="Arial, sans-serif" font-size="10" fill="#6b7280">w_const</text>
<rect x="318.3" y="484.8" width="35.1" height="103.2" fill="#2563eb" opacity="0.9"/>
<rect x="318.3" y="478.5" width="35.1" height="6.4" fill="#16a34a" opacity="0.9"/>
<rect x="318.3" y="478.2" width="35.1" height="1.0" fill="#9333ea" opacity="0.9"/>
<rect x="318.3" y="478.2" width="35.1" height="1.0" fill="#dc2626" opacity="0.9"/>
<text x="335.9" y="631" text-anchor="middle" font-family="Arial, sans-serif" font-size="10" fill="#6b7280">wo_const</text>
<rect x="373.3" y="482.0" width="35.1" height="106.0" fill="#2563eb" opacity="0.9"/>
<rect x="373.3" y="471.7" width="35.1" height="10.3" fill="#16a34a" opacity="0.9"/>
<rect x="373.3" y="471.5" width="35.1" height="1.0" fill="#9333ea" opacity="0.9"/>
<rect x="373.3" y="471.5" width="35.1" height="1.0" fill="#dc2626" opacity="0.9"/>
<text x="390.9" y="631" text-anchor="middle" font-family="Arial, sans-serif" font-size="10" fill="#6b7280">w_const</text>
<rect x="430.9" y="479.5" width="35.1" height="108.5" fill="#2563eb" opacity="0.9"/>
<rect x="430.9" y="469.3" width="35.1" height="10.2" fill="#16a34a" opacity="0.9"/>
<rect x="430.9" y="469.1" width="35.1" height="1.0" fill="#9333ea" opacity="0.9"/>
<rect x="430.9" y="469.1" width="35.1" height="1.0" fill="#dc2626" opacity="0.9"/>
<text x="448.4" y="631" text-anchor="middle" font-family="Arial, sans-serif" font-size="10" fill="#6b7280">wo_const</text>
<rect x="485.9" y="446.6" width="35.1" height="141.4" fill="#2563eb" opacity="0.9"/>
<rect x="485.9" y="422.2" width="35.1" height="24.4" fill="#ea580c" opacity="0.9"/>
<rect x="485.9" y="419.7" width="35.1" height="2.5" fill="#16a34a" opacity="0.9"/>
<rect x="485.9" y="419.3" width="35.1" height="1.0" fill="#9333ea" opacity="0.9"/>
<rect x="485.9" y="419.2" width="35.1" height="1.0" fill="#dc2626" opacity="0.9"/>
<text x="503.4" y="631" text-anchor="middle" font-family="Arial, sans-serif" font-size="10" fill="#6b7280">w_const</text>
<rect x="543.4" y="427.3" width="35.1" height="160.7" fill="#2563eb" opacity="0.9"/>
<rect x="543.4" y="398.0" width="35.1" height="29.3" fill="#ea580c" opacity="0.9"/>
<rect x="543.4" y="395.8" width="35.1" height="2.2" fill="#16a34a" opacity="0.9"/>
<rect x="543.4" y="395.4" width="35.1" height="1.0" fill="#9333ea" opacity="0.9"/>
<rect x="543.4" y="395.4" width="35.1" height="1.0" fill="#dc2626" opacity="0.9"/>
<text x="560.9" y="631" text-anchor="middle" font-family="Arial, sans-serif" font-size="10" fill="#6b7280">wo_const</text>
<rect x="598.4" y="431.6" width="35.1" height="156.4" fill="#2563eb" opacity="0.9"/>
<rect x="598.4" y="401.9" width="35.1" height="29.7" fill="#ea580c" opacity="0.9"/>
<rect x="598.4" y="399.5" width="35.1" height="2.4" fill="#16a34a" opacity="0.9"/>
<rect x="598.4" y="399.1" width="35.1" height="1.0" fill="#9333ea" opacity="0.9"/>
<rect x="598.4" y="399.1" width="35.1" height="1.0" fill="#dc2626" opacity="0.9"/>
<text x="616.0" y="631" text-anchor="middle" font-family="Arial, sans-serif" font-size="10" fill="#6b7280">w_const</text>
<rect x="656.0" y="433.9" width="35.1" height="154.1" fill="#2563eb" opacity="0.9"/>
<rect x="656.0" y="408.0" width="35.1" height="26.0" fill="#ea580c" opacity="0.9"/>
<rect x="656.0" y="405.8" width="35.1" height="2.2" fill="#16a34a" opacity="0.9"/>
<rect x="656.0" y="405.5" width="35.1" height="1.0" fill="#9333ea" opacity="0.9"/>
<rect x="656.0" y="405.5" width="35.1" height="1.0" fill="#dc2626" opacity="0.9"/>
<text x="673.5" y="631" text-anchor="middle" font-family="Arial, sans-serif" font-size="10" fill="#6b7280">wo_const</text>
<rect x="711.0" y="434.0" width="35.1" height="154.0" fill="#2563eb" opacity="0.9"/>
<rect x="711.0" y="405.0" width="35.1" height="28.9" fill="#ea580c" opacity="0.9"/>
<rect x="711.0" y="402.5" width="35.1" height="2.5" fill="#16a34a" opacity="0.9"/>
<rect x="711.0" y="402.2" width="35.1" height="1.0" fill="#9333ea" opacity="0.9"/>
<rect x="711.0" y="402.1" width="35.1" height="1.0" fill="#dc2626" opacity="0.9"/>
<text x="728.5" y="631" text-anchor="middle" font-family="Arial, sans-serif" font-size="10" fill="#6b7280">w_const</text>
<rect x="768.5" y="414.9" width="35.1" height="173.1" fill="#2563eb" opacity="0.9"/>
<rect x="768.5" y="385.1" width="35.1" height="29.9" fill="#ea580c" opacity="0.9"/>
<rect x="768.5" y="382.7" width="35.1" height="2.3" fill="#16a34a" opacity="0.9"/>
<rect x="768.5" y="382.5" width="35.1" height="1.0" fill="#9333ea" opacity="0.9"/>
<rect x="768.5" y="382.4" width="35.1" height="1.0" fill="#dc2626" opacity="0.9"/>
<text x="786.0" y="631" text-anchor="middle" font-family="Arial, sans-serif" font-size="10" fill="#6b7280">wo_const</text>
<rect x="823.5" y="427.4" width="35.1" height="160.6" fill="#2563eb" opacity="0.9"/>
<rect x="823.5" y="397.7" width="35.1" height="29.7" fill="#ea580c" opacity="0.9"/>
<rect x="823.5" y="395.0" width="35.1" height="2.7" fill="#16a34a" opacity="0.9"/>
<rect x="823.5" y="394.7" width="35.1" height="1.0" fill="#9333ea" opacity="0.9"/>
<rect x="823.5" y="394.7" width="35.1" height="1.0" fill="#dc2626" opacity="0.9"/>
<text x="841.1" y="631" text-anchor="middle" font-family="Arial, sans-serif" font-size="10" fill="#6b7280">w_const</text>
<rect x="881.0" y="425.9" width="35.1" height="162.1" fill="#2563eb" opacity="0.9"/>
<rect x="881.0" y="395.5" width="35.1" height="30.3" fill="#ea580c" opacity="0.9"/>
<rect x="881.0" y="392.9" width="35.1" height="2.7" fill="#16a34a" opacity="0.9"/>
<rect x="881.0" y="392.5" width="35.1" height="1.0" fill="#9333ea" opacity="0.9"/>
<rect x="881.0" y="392.5" width="35.1" height="1.0" fill="#dc2626" opacity="0.9"/>
<text x="898.6" y="631" text-anchor="middle" font-family="Arial, sans-serif" font-size="10" fill="#6b7280">wo_const</text>
<rect x="936.1" y="424.1" width="35.1" height="163.9" fill="#2563eb" opacity="0.9"/>
<rect x="936.1" y="390.3" width="35.1" height="33.8" fill="#ea580c" opacity="0.9"/>
<rect x="936.1" y="387.8" width="35.1" height="2.6" fill="#16a34a" opacity="0.9"/>
<rect x="936.1" y="387.5" width="35.1" height="1.0" fill="#9333ea" opacity="0.9"/>
<rect x="936.1" y="387.4" width="35.1" height="1.0" fill="#dc2626" opacity="0.9"/>
<text x="953.6" y="631" text-anchor="middle" font-family="Arial, sans-serif" font-size="10" fill="#6b7280">w_const</text>
<rect x="993.6" y="366.6" width="35.1" height="221.4" fill="#2563eb" opacity="0.9"/>
<rect x="993.6" y="336.9" width="35.1" height="29.8" fill="#ea580c" opacity="0.9"/>
<rect x="993.6" y="334.4" width="35.1" height="2.5" fill="#16a34a" opacity="0.9"/>
<rect x="993.6" y="334.1" width="35.1" height="1.0" fill="#9333ea" opacity="0.9"/>
<rect x="993.6" y="334.0" width="35.1" height="1.0" fill="#dc2626" opacity="0.9"/>
<text x="1011.1" y="631" text-anchor="middle" font-family="Arial, sans-serif" font-size="10" fill="#6b7280">wo_const</text>
<rect x="1048.6" y="423.1" width="35.1" height="164.9" fill="#2563eb" opacity="0.9"/>
<rect x="1048.6" y="389.7" width="35.1" height="33.4" fill="#ea580c" opacity="0.9"/>
<rect x="1048.6" y="387.0" width="35.1" height="2.7" fill="#16a34a" opacity="0.9"/>
<rect x="1048.6" y="386.7" width="35.1" height="1.0" fill="#9333ea" opacity="0.9"/>
<rect x="1048.6" y="386.6" width="35.1" height="1.0" fill="#dc2626" opacity="0.9"/>
<text x="1066.1" y="631" text-anchor="middle" font-family="Arial, sans-serif" font-size="10" fill="#6b7280">w_const</text>
<rect x="1106.1" y="373.1" width="35.1" height="214.9" fill="#2563eb" opacity="0.9"/>
<rect x="1106.1" y="338.2" width="35.1" height="35.0" fill="#ea580c" opacity="0.9"/>
<rect x="1106.1" y="335.7" width="35.1" height="2.5" fill="#16a34a" opacity="0.9"/>
<rect x="1106.1" y="335.4" width="35.1" height="1.0" fill="#9333ea" opacity="0.9"/>
<rect x="1106.1" y="335.3" width="35.1" height="1.0" fill="#dc2626" opacity="0.9"/>
<text x="1123.7" y="631" text-anchor="middle" font-family="Arial, sans-serif" font-size="10" fill="#6b7280">wo_const</text>
<rect x="1161.2" y="417.9" width="35.1" height="170.1" fill="#2563eb" opacity="0.9"/>
<rect x="1161.2" y="386.3" width="35.1" height="31.5" fill="#ea580c" opacity="0.9"/>
<rect x="1161.2" y="383.5" width="35.1" height="2.9" fill="#16a34a" opacity="0.9"/>
<rect x="1161.2" y="383.2" width="35.1" height="1.0" fill="#9333ea" opacity="0.9"/>
<rect x="1161.2" y="383.2" width="35.1" height="1.0" fill="#dc2626" opacity="0.9"/>
<text x="1178.7" y="631" text-anchor="middle" font-family="Arial, sans-serif" font-size="10" fill="#6b7280">w_const</text>
<rect x="1218.7" y="414.2" width="35.1" height="173.8" fill="#2563eb" opacity="0.9"/>
<rect x="1218.7" y="381.1" width="35.1" height="33.1" fill="#ea580c" opacity="0.9"/>
<rect x="1218.7" y="378.4" width="35.1" height="2.8" fill="#16a34a" opacity="0.9"/>
<rect x="1218.7" y="378.0" width="35.1" height="1.0" fill="#9333ea" opacity="0.9"/>
<rect x="1218.7" y="377.9" width="35.1" height="1.0" fill="#dc2626" opacity="0.9"/>
<text x="1236.2" y="631" text-anchor="middle" font-family="Arial, sans-serif" font-size="10" fill="#6b7280">wo_const</text>
<rect x="1273.7" y="342.2" width="35.1" height="245.8" fill="#2563eb" opacity="0.9"/>
<rect x="1273.7" y="302.0" width="35.1" height="40.3" fill="#ea580c" opacity="0.9"/>
<rect x="1273.7" y="298.0" width="35.1" height="4.0" fill="#16a34a" opacity="0.9"/>
<rect x="1273.7" y="297.5" width="35.1" height="1.0" fill="#9333ea" opacity="0.9"/>
<rect x="1273.7" y="297.5" width="35.1" height="1.0" fill="#dc2626" opacity="0.9"/>
<text x="1291.2" y="631" text-anchor="middle" font-family="Arial, sans-serif" font-size="10" fill="#6b7280">w_const</text>
<rect x="1331.2" y="276.3" width="35.1" height="311.7" fill="#2563eb" opacity="0.9"/>
<rect x="1331.2" y="236.6" width="35.1" height="39.7" fill="#ea580c" opacity="0.9"/>
<rect x="1331.2" y="232.5" width="35.1" height="4.1" fill="#16a34a" opacity="0.9"/>
<rect x="1331.2" y="232.1" width="35.1" height="1.0" fill="#9333ea" opacity="0.9"/>
<rect x="1331.2" y="232.0" width="35.1" height="1.0" fill="#dc2626" opacity="0.9"/>
<text x="1348.8" y="631" text-anchor="middle" font-family="Arial, sans-serif" font-size="10" fill="#6b7280">wo_const</text>
<rect x="1348" y="78" width="12" height="12" fill="#2563eb"/>
<text x="1366" y="88" font-family="Arial, sans-serif" font-size="11" fill="#374151">dot</text>
<rect x="1348" y="108" width="12" height="12" fill="#ea580c"/>
<text x="1366" y="118" font-family="Arial, sans-serif" font-size="11" fill="#374151">call</text>
<rect x="1348" y="138" width="12" height="12" fill="#16a34a"/>
<text x="1366" y="148" font-family="Arial, sans-serif" font-size="11" fill="#374151">loop fusion</text>
<rect x="1348" y="168" width="12" height="12" fill="#9333ea"/>
<text x="1366" y="178" font-family="Arial, sans-serif" font-size="11" fill="#374151">reduce</text>
<rect x="1348" y="198" width="12" height="12" fill="#dc2626"/>
<text x="1366" y="208" font-family="Arial, sans-serif" font-size="11" fill="#374151">tuple</text>
<rect x="1348" y="228" width="12" height="12" fill="#0891b2"/>
<text x="1366" y="238" font-family="Arial, sans-serif" font-size="11" fill="#374151">other</text>
<text x="1348" y="652" font-family="Arial, sans-serif" font-size="11" fill="#6b7280">w_const = with_constant_folding</text>
<text x="1348" y="670" font-family="Arial, sans-serif" font-size="11" fill="#6b7280">wo_const = without_constant_folding</text>
</svg>
